@startuml
'https://plantuml.com/class-diagram

class Ship {
# shipName: String
# yearBuilt: String

+ getShipName(): String
+ setShipName(in shipName: String): void
+ getYearBuilt(): String
+ setYearBuilt(in yearBuilt: String): void
+ toString(): String
+ printShip(): void
}


class CargoShip {
~ cargoCapacityInTonnage: int

+ getCargoCapacityInTonnage(): int
+ setCargoCapacityInTonnage(in cargoCapacityInTonnage: int): void
+ toString(): String
}

class CruiseShip {
~ maxNumberPassengers: int

+ getMaxNumberPassengers(): int
+ setMaxNumberPassengers(in maxNumberPassengers: int): void
+ toString(): String
}

Ship <|-- CargoShip
Ship <|-- CruiseShip


class Driver {
+ {static} main(in args: String[*]): void
}


@enduml