@startuml
'https://plantuml.com/class-diagram

abstract class Employee {
-firstName: String
-lastName: String
-socialSecurityNumber: String

+ getFirstName(): String
+ setFirstName(in firstName: String): void
+ getLastName(): String
+ setLastName(in firstName: String): void
+ getSocialSecurityNumber(): String
+ setSocialSecurityNumber(in socialSecurityNumber: String): void
+ toString(): String
}

abstract AbstractCollection
interface List
interface Collection

List <|-- AbstractList
Collection <|-- AbstractCollection

Collection <|- List
AbstractCollection <|- AbstractList
AbstractList <|-- ArrayList



class ArrayList {
Object[] elementData
size()
}

enum TimeUnit {
DAYS
HOURS
MINUTES
}

@enduml